<svg width="63" height="63" viewBox="0 0 63 63" fill="none" xmlns="http://www.w3.org/2000/svg">
<circle cx="31.5" cy="31.5" r="31.5" fill="white"/>
<g filter="url(#filter0_d)">
<circle cx="20.5" cy="21.5" r="10.5" fill="white"/>
<circle cx="20.5" cy="21.5" r="9.69231" stroke="#35B6FF" stroke-width="1.61538"/>
</g>
<path d="M20.6512 24.244C20.6835 24.328 20.6997 24.4055 20.6997 24.4766C20.6997 24.6446 20.6448 24.7835 20.5349 24.8934C20.4251 24.9968 20.2991 25.0485 20.1569 25.0485C20.0406 25.0485 19.934 25.0129 19.8371 24.9418C19.7466 24.8708 19.6755 24.7738 19.6238 24.6511L19.1198 23.4783H16.2315L15.7275 24.6608C15.6823 24.7835 15.6112 24.8805 15.5143 24.9515C15.4238 25.0162 15.3237 25.0485 15.2138 25.0485C15.0458 25.0485 14.9166 25.0032 14.8261 24.9128C14.7421 24.8223 14.7001 24.6995 14.7001 24.5445C14.7001 24.4863 14.7098 24.4249 14.7292 24.3603L17.1426 18.5643C17.1943 18.4351 17.2718 18.3349 17.3752 18.2638C17.4786 18.1928 17.5949 18.1637 17.7241 18.1766C17.8404 18.1766 17.9471 18.2122 18.044 18.2832C18.1474 18.3478 18.2217 18.4415 18.2669 18.5643L20.6512 24.244ZM18.6449 22.3637L17.666 20.0957L16.7064 22.3637H18.6449ZM25.6686 21.6077C25.8237 21.6077 25.953 21.6594 26.0563 21.7628C26.1597 21.8597 26.2114 21.9857 26.2114 22.1408C26.2114 22.2958 26.1597 22.4251 26.0563 22.5285C25.953 22.6254 25.8237 22.6738 25.6686 22.6738H24.3117V23.9435C24.3117 24.1245 24.2503 24.2731 24.1276 24.3894C24.0113 24.5057 23.8626 24.5638 23.6817 24.5638C23.5008 24.5638 23.349 24.5057 23.2262 24.3894C23.1099 24.2731 23.0517 24.1245 23.0517 23.9435V22.6738H21.7239C21.5688 22.6738 21.4396 22.6222 21.3362 22.5188C21.2328 22.4154 21.1811 22.2862 21.1811 22.1311C21.1811 21.976 21.2328 21.85 21.3362 21.7531C21.4396 21.6562 21.5688 21.6077 21.7239 21.6077H23.0517V20.1635C23.0517 19.9826 23.1099 19.834 23.2262 19.7177C23.349 19.6014 23.504 19.5432 23.6914 19.5432C23.8723 19.5432 24.021 19.6014 24.1373 19.7177C24.2536 19.834 24.3117 19.9826 24.3117 20.1635V21.6077H25.6686Z" fill="#35B6FF"/>
<path d="M56.4615 30C56.4615 35.1267 52.4728 39.2308 47.6154 39.2308C42.7579 39.2308 38.7692 35.1267 38.7692 30C38.7692 24.8733 42.7579 20.7692 47.6154 20.7692C52.4728 20.7692 56.4615 24.8733 56.4615 30Z" fill="white" stroke="#35E7FF" stroke-width="1.53846"/>
<path d="M48.5977 32.28C48.6285 32.36 48.6439 32.4338 48.6439 32.5015C48.6439 32.6615 48.5916 32.7938 48.487 32.8985C48.3824 32.9969 48.2624 33.0462 48.127 33.0462C48.0162 33.0462 47.9147 33.0123 47.8224 32.9446C47.7362 32.8769 47.6685 32.7846 47.6193 32.6677L47.1393 31.5508H44.3885L43.9085 32.6769C43.8654 32.7938 43.7977 32.8862 43.7054 32.9538C43.6193 33.0154 43.5239 33.0462 43.4193 33.0462C43.2593 33.0462 43.1362 33.0031 43.05 32.9169C42.97 32.8308 42.93 32.7138 42.93 32.5662C42.93 32.5108 42.9393 32.4523 42.9577 32.3908L45.2562 26.8708C45.3054 26.7477 45.3793 26.6523 45.4777 26.5846C45.5762 26.5169 45.687 26.4892 45.81 26.5015C45.9208 26.5015 46.0224 26.5354 46.1147 26.6031C46.2131 26.6646 46.2839 26.7538 46.327 26.8708L48.5977 32.28ZM46.687 30.4892L45.7547 28.3292L44.8408 30.4892H46.687ZM49.7578 30.72C49.5978 30.72 49.4624 30.6677 49.3516 30.5631C49.247 30.4585 49.1947 30.3262 49.1947 30.1662C49.1947 30.0123 49.247 29.8831 49.3516 29.7785C49.4624 29.6738 49.5978 29.6215 49.7578 29.6215H51.3639C51.5239 29.6215 51.6563 29.6769 51.7609 29.7877C51.8716 29.8923 51.927 30.0246 51.927 30.1846C51.927 30.3385 51.8716 30.4677 51.7609 30.5723C51.6563 30.6708 51.5239 30.72 51.3639 30.72H49.7578Z" fill="#35E7FF"/>
<circle cx="26.5" cy="45.5" r="9.69231" fill="#35FFC2" stroke="#35FFC2" stroke-width="1.61538"/>
<path d="M25.3205 45.2394C25.6629 45.3751 25.9408 45.5818 26.154 45.8597C26.3737 46.1375 26.4835 46.4962 26.4835 46.9355C26.4835 47.7045 26.2638 48.2408 25.8245 48.5445C25.3851 48.8482 24.8617 49 24.2543 49H21.8409C21.6729 49 21.5308 48.9451 21.4145 48.8352C21.3046 48.7189 21.2497 48.5768 21.2497 48.4088V42.8066C21.2497 42.6386 21.3046 42.4997 21.4145 42.3898C21.5308 42.2735 21.6729 42.2154 21.8409 42.2154H24.2834C25.5111 42.2154 26.1249 42.7905 26.1249 43.9406C26.1249 44.2314 26.0538 44.4898 25.9117 44.716C25.776 44.9357 25.5789 45.1102 25.3205 45.2394ZM24.8649 44.1538C24.8649 43.8889 24.7971 43.6918 24.6614 43.5626C24.5321 43.4269 24.348 43.3591 24.1089 43.3591H22.5097V44.8711H24.138C24.3318 44.8711 24.4998 44.8065 24.642 44.6772C24.7906 44.548 24.8649 44.3735 24.8649 44.1538ZM24.2543 47.8854C24.558 47.8854 24.7938 47.8046 24.9618 47.6431C25.1363 47.4815 25.2235 47.2457 25.2235 46.9355C25.2235 46.5543 25.1234 46.3055 24.9231 46.1892C24.7228 46.0729 24.4772 46.0148 24.1865 46.0148H22.5097V47.8854H24.2543ZM31.7491 45.6077C31.9042 45.6077 32.0334 45.6594 32.1368 45.7628C32.2402 45.8597 32.2919 45.9857 32.2919 46.1408C32.2919 46.2958 32.2402 46.4251 32.1368 46.5285C32.0334 46.6254 31.9042 46.6738 31.7491 46.6738H30.3922V47.9435C30.3922 48.1245 30.3308 48.2731 30.208 48.3894C30.0917 48.5057 29.9431 48.5638 29.7622 48.5638C29.5813 48.5638 29.4294 48.5057 29.3066 48.3894C29.1903 48.2731 29.1322 48.1245 29.1322 47.9435V46.6738H27.8043C27.6493 46.6738 27.52 46.6222 27.4166 46.5188C27.3133 46.4154 27.2616 46.2862 27.2616 46.1311C27.2616 45.976 27.3133 45.85 27.4166 45.7531C27.52 45.6562 27.6493 45.6077 27.8043 45.6077H29.1322V44.1635C29.1322 43.9826 29.1903 43.834 29.3066 43.7177C29.4294 43.6014 29.5845 43.5432 29.7719 43.5432C29.9528 43.5432 30.1014 43.6014 30.2177 43.7177C30.334 43.834 30.3922 43.9826 30.3922 44.1635V45.6077H31.7491Z" fill="white"/>
<defs>
<filter id="filter0_d" x="5.96154" y="6.96154" width="29.0769" height="29.0769" filterUnits="userSpaceOnUse" color-interpolation-filters="sRGB">
<feFlood flood-opacity="0" result="BackgroundImageFix"/>
<feColorMatrix in="SourceAlpha" type="matrix" values="0 0 0 0 0 0 0 0 0 0 0 0 0 0 0 0 0 0 127 0"/>
<feOffset/>
<feGaussianBlur stdDeviation="2.01923"/>
<feColorMatrix type="matrix" values="0 0 0 0 0.207843 0 0 0 0 0.713725 0 0 0 0 1 0 0 0 1 0"/>
<feBlend mode="normal" in2="BackgroundImageFix" result="effect1_dropShadow"/>
<feBlend mode="normal" in="SourceGraphic" in2="effect1_dropShadow" result="shape"/>
</filter>
</defs>
</svg>
