<svg width="97" height="97" viewBox="0 0 97 97" fill="none" xmlns="http://www.w3.org/2000/svg">
<path d="M37.7441 31.7645L27.8733 53.2822C27.2154 54.7164 27.8452 56.4119 29.2787 57.0698C29.665 57.2467 30.0698 57.3303 30.4679 57.3303C31.5506 57.3303 32.5859 56.7124 33.0662 55.6644L35.8873 49.5146H44.7938L47.6149 55.6644C48.0952 56.7124 49.1305 57.3303 50.2132 57.3303C50.6114 57.3303 51.0162 57.2467 51.4025 57.0698C52.8367 56.4119 53.4658 54.7164 52.8079 53.2822L42.937 31.7645C42.4716 30.7491 41.4569 30.0986 40.3409 30.0986C39.2242 30.0986 38.2096 30.7491 37.7441 31.7645ZM38.5086 43.8014L40.3402 39.8074L42.1726 43.8014H38.5086Z" fill="#35C2FF"/>
<path d="M56.9099 40.7857H58.9251V42.8016C58.9251 44.3786 60.2039 45.6582 61.7817 45.6582C63.3595 45.6582 64.6383 44.3786 64.6383 42.8016V40.7857H66.6535C68.2312 40.7857 69.5101 39.5069 69.5101 37.9291C69.5101 36.352 68.2312 35.0725 66.6535 35.0725H64.6383V33.0573C64.6383 31.4796 63.3595 30.2007 61.7817 30.2007C60.2039 30.2007 58.9251 31.4796 58.9251 33.0573V35.0725H56.9099C55.3322 35.0725 54.0533 36.352 54.0533 37.9291C54.0533 39.5069 55.3322 40.7857 56.9099 40.7857V40.7857Z" fill="#35C2FF"/>
<path d="M66.6535 63.0005H30.4694C28.8916 63.0005 27.6128 64.2794 27.6128 65.8571C27.6128 67.4349 28.8916 68.7137 30.4694 68.7137H66.6535C68.2312 68.7137 69.5101 67.4349 69.5101 65.8571C69.5101 64.2794 68.2312 63.0005 66.6535 63.0005Z" fill="#35C2FF"/>
<path d="M54.3309 71.7184H30.4694C28.8916 71.7184 27.6128 72.9972 27.6128 74.575C27.6128 76.1528 28.8916 77.4316 30.4694 77.4316H54.3309C55.9079 77.4316 57.1875 76.1528 57.1875 74.575C57.1875 72.9972 55.9087 71.7184 54.3309 71.7184Z" fill="#35C2FF"/>
</svg>
