<svg width="91" height="91" viewBox="0 0 91 91" fill="none" xmlns="http://www.w3.org/2000/svg">
<path d="M45.0493 16.8612C40.8445 19.8185 36.0788 23.1706 33.5255 28.7162C29.0903 38.3908 42.601 48.9444 43.1783 49.3889C43.3126 49.4925 43.4731 49.5438 43.6333 49.5438C43.8034 49.5438 43.9737 49.4856 44.1122 49.3698C44.3804 49.1455 44.4565 48.7645 44.2954 48.4542C44.2464 48.3599 39.3969 38.9401 39.5771 32.1819C39.6409 29.8285 42.9348 27.1585 46.4221 24.3315C49.616 21.7423 53.2363 18.8077 55.3546 15.3747C60.0049 7.81819 54.8364 0.387838 54.7836 0.313845C54.5783 0.0256292 54.1994 -0.079095 53.8754 0.0632226C53.5517 0.205838 53.3723 0.556113 53.4463 0.901912C53.4568 0.950843 54.462 5.86453 51.6651 10.9268C50.5126 13.0186 47.981 14.7995 45.0493 16.8612Z" fill="#35C2FF"/>
<path d="M62.7644 20.1935C63.061 19.97 63.1481 19.5625 62.9685 19.2373C62.7889 18.9121 62.3978 18.7685 62.0505 18.9004C61.3362 19.1719 44.5585 25.6389 44.5585 33.4532C44.5585 38.8395 46.8595 41.6853 48.5395 43.7633C49.1986 44.5781 49.7676 45.282 49.955 45.8829C50.4828 47.6146 49.2323 50.7443 48.7066 51.8041C48.5551 52.109 48.6294 52.4781 48.8871 52.7007C49.0265 52.8209 49.2004 52.8818 49.3747 52.8818C49.5229 52.8818 49.6718 52.8376 49.8004 52.7481C50.0889 52.5473 56.8507 47.7667 55.6378 42.0069C55.1861 39.8178 54.1102 38.218 53.1608 36.8065C51.6902 34.6198 50.6281 33.04 52.2395 30.1223C54.1281 26.7198 62.6782 20.2583 62.7644 20.1935Z" fill="#35C2FF"/>
<path d="M19.0921 53.0063C18.8045 53.8671 18.9402 54.7219 19.4844 55.4776C21.3032 58.0024 27.7454 59.393 37.6253 59.393C37.6259 59.393 37.6262 59.393 37.6265 59.393C38.9652 59.393 40.3785 59.3668 41.8262 59.3148C57.6222 58.7492 63.4811 53.8283 63.7228 53.6192C63.9863 53.3912 64.0567 53.0114 63.8929 52.7041C63.7291 52.3971 63.3758 52.2428 63.0384 52.3356C57.4755 53.8546 47.0872 54.3937 39.8818 54.3937C31.8192 54.3937 27.7132 53.8131 26.708 53.3843C27.2239 52.676 30.4053 51.4113 34.3475 50.6359C34.7243 50.5619 34.9833 50.214 34.946 49.8318C34.9087 49.4496 34.5877 49.1581 34.2037 49.1581C31.8926 49.1584 20.3034 49.344 19.0921 53.0063Z" fill="#35C2FF"/>
<path d="M71.9488 47.9384C68.6908 47.9384 65.6012 49.571 65.4712 49.6405C65.1698 49.8019 65.0171 50.1474 65.0997 50.4792C65.1826 50.8107 65.4807 51.0437 65.8226 51.044C65.8918 51.0443 72.7723 51.1004 73.3956 55.0316C73.9476 58.423 66.8854 63.9182 64.1175 65.7495C63.8185 65.9473 63.7025 66.3298 63.8412 66.6601C63.9591 66.9415 64.2333 67.1175 64.5286 67.1175C64.5803 67.1175 64.6325 67.1121 64.6844 67.1008C65.3414 66.9606 80.7525 63.5646 79.1232 54.5915C78.1291 49.0924 74.6729 47.9384 71.9488 47.9384Z" fill="#35C2FF"/>
<path d="M61.38 64.6515C61.4337 64.3639 61.3141 64.0715 61.0748 63.9038L57.3796 61.3156C57.1994 61.1893 56.9718 61.1497 56.7602 61.2058C56.7217 61.2159 52.8574 62.2315 47.247 62.8545C45.0204 63.1042 42.5264 63.2361 40.0342 63.2361C34.4253 63.2361 30.7579 62.577 30.2238 62.0937C30.1531 61.9579 30.1755 61.8962 30.188 61.8619C30.285 61.5918 30.805 61.2711 31.1404 61.1443C31.5106 61.0073 31.7103 60.6052 31.5951 60.2274C31.4802 59.8497 31.0909 59.6271 30.7066 59.7196C26.9997 60.6141 25.1872 61.8651 25.3191 63.4375C25.5533 66.2251 32.0107 67.656 37.4698 68.0346C38.2548 68.0883 39.1039 68.1158 39.9927 68.1158C39.9933 68.1158 39.9936 68.1158 39.9942 68.1158C49.0718 68.1158 60.709 65.2676 60.8254 65.2387C61.1094 65.1686 61.326 64.9391 61.38 64.6515Z" fill="#35C2FF"/>
<path d="M33.521 70.6352C33.8008 70.4529 33.925 70.1071 33.8256 69.7885C33.7266 69.4698 33.4285 69.2607 33.0937 69.2648C32.597 69.278 28.2329 69.4749 27.9273 72.2535C27.8348 73.0838 28.0726 73.8423 28.6345 74.5079C30.2014 76.3649 34.431 77.4685 41.563 77.8824C42.4067 77.9328 43.2636 77.9581 44.1107 77.9581C53.1778 77.9581 59.2843 75.1193 59.54 74.9984C59.788 74.8812 59.9515 74.6377 59.9661 74.3638C59.9807 74.0902 59.8441 73.8303 59.6102 73.6874L54.9402 70.8366C54.7782 70.7378 54.5843 70.705 54.3993 70.7429C54.3698 70.7492 51.4047 71.3641 46.9299 71.9719C46.0831 72.0867 45.0228 72.1452 43.7786 72.1452C39.3086 72.1452 34.3367 71.4148 33.3831 70.9368C33.3694 70.847 33.387 70.7337 33.521 70.6352Z" fill="#35C2FF"/>
<path d="M39.885 86.5297C60.6538 86.5121 71.8009 82.8187 73.9482 80.4944C74.7084 79.6719 74.7904 78.8934 74.7257 78.385C74.5661 77.1337 73.4266 76.3678 73.2971 76.2846C72.9853 76.0841 72.567 76.1366 72.3239 76.417C72.0813 76.6978 72.0756 77.1075 72.3191 77.3876C72.4501 77.5562 72.5259 77.8381 72.1428 78.2215C71.2844 79.0232 62.626 81.4569 48.2099 82.1879C46.235 82.2909 44.1638 82.3428 42.0538 82.3431C29.1462 82.3431 19.6998 80.5753 18.4598 79.5447C18.9381 78.8582 22.2791 77.7609 25.8326 77.1406C26.233 77.0708 26.5036 76.6933 26.4415 76.2917C26.3795 75.8901 26.0092 75.6136 25.6046 75.6664C25.5044 75.6798 25.1646 75.7007 24.7704 75.7245C18.9074 76.0826 12.1319 76.8807 11.7783 79.9013C11.6709 80.822 11.9445 81.6574 12.5917 82.3848C14.1751 84.164 18.7265 86.5294 39.8841 86.5294C39.8847 86.5297 39.8847 86.5297 39.885 86.5297Z" fill="#35C2FF"/>
<path d="M78.0276 81.1494C77.734 81.0136 77.3873 81.0822 77.168 81.3185C77.1373 81.3514 74.0149 84.6166 64.6265 86.5339C61.0321 87.2541 54.2853 87.6193 44.5734 87.6193C34.8433 87.6193 25.5849 87.2365 25.4924 87.2326C25.1057 87.2138 24.7749 87.4949 24.7224 87.8756C24.6695 88.2563 24.9148 88.6146 25.2883 88.7035C25.3847 88.7265 35.0877 90.9997 48.3545 90.9997C54.7176 90.9997 60.9095 90.4826 66.7585 89.4629C77.6645 87.551 78.428 82.1432 78.4551 81.9141C78.493 81.5936 78.3206 81.2851 78.0276 81.1494Z" fill="#35C2FF"/>
</svg>
