<svg width="63" height="63" viewBox="0 0 63 63" fill="none" xmlns="http://www.w3.org/2000/svg">
<circle cx="31.5" cy="31.5" r="31.5" fill="white"/>
<path d="M15.0901 30V19.2H17.3851V30H15.0901ZM18.621 30V21.3H25.266C25.866 21.3 26.376 21.515 26.796 21.945C27.226 22.375 27.441 22.885 27.441 23.475V30H25.146V24.09C25.146 23.76 25.146 23.595 25.146 23.595C25.146 23.595 24.981 23.595 24.651 23.595H21.411C21.081 23.595 20.916 23.595 20.916 23.595C20.916 23.595 20.916 23.76 20.916 24.09V30H18.621ZM29.0654 30V18.45H31.3604V21.3H35.7104C36.3004 21.3 36.8104 21.515 37.2404 21.945C37.6704 22.375 37.8854 22.885 37.8854 23.475V30H35.5904V24.09C35.5904 23.76 35.5904 23.595 35.5904 23.595C35.5904 23.595 35.4254 23.595 35.0954 23.595H31.8554C31.5254 23.595 31.3604 23.595 31.3604 23.595C31.3604 23.595 31.3604 23.76 31.3604 24.09V30H29.0654ZM41.2299 30C40.6299 30 40.1149 29.785 39.6849 29.355C39.2649 28.925 39.0549 28.415 39.0549 27.825V24.495H45.5799V24.09C45.5799 23.76 45.5799 23.595 45.5799 23.595C45.5799 23.595 45.4149 23.595 45.0849 23.595H39.0549V21.3H45.6999C46.2999 21.3 46.8099 21.515 47.2299 21.945C47.6599 22.375 47.8749 22.885 47.8749 23.475V30H41.2299ZM41.8449 27.705H45.5799V26.505H41.3499V27.21C41.3499 27.54 41.3499 27.705 41.3499 27.705C41.3499 27.705 41.5149 27.705 41.8449 27.705ZM21.1615 49C20.5715 49 20.0615 48.785 19.6315 48.355C19.2015 47.925 18.9865 47.415 18.9865 46.825V37.435H21.2965V46.21C21.2965 46.54 21.2965 46.705 21.2965 46.705C21.2965 46.705 21.4615 46.705 21.7915 46.705H23.0515V49H21.1615ZM24.4944 49V40.3H26.7894V49H24.4944ZM24.4944 39.76V37.45H26.7894V39.76H24.4944ZM30.6377 49C30.0477 49 29.5377 48.785 29.1077 48.355C28.6777 47.925 28.4627 47.415 28.4627 46.825V46.39H30.7577V46.465C30.7577 46.625 30.7577 46.705 30.7577 46.705C30.7577 46.705 30.8377 46.705 30.9977 46.705H34.7477C34.9077 46.705 34.9877 46.705 34.9877 46.705C34.9877 46.705 34.9877 46.625 34.9877 46.465V46.045C34.9877 45.885 34.9877 45.805 34.9877 45.805C34.9877 45.805 34.9077 45.805 34.7477 45.805H30.6377C30.0477 45.805 29.5377 45.59 29.1077 45.16C28.6777 44.73 28.4627 44.22 28.4627 43.63V42.475C28.4627 41.885 28.6777 41.375 29.1077 40.945C29.5377 40.515 30.0477 40.3 30.6377 40.3H35.1077C35.7077 40.3 36.2227 40.515 36.6527 40.945C37.0827 41.375 37.2977 41.885 37.2977 42.475V42.91H34.9877V42.835C34.9877 42.675 34.9877 42.595 34.9877 42.595C34.9877 42.595 34.9077 42.595 34.7477 42.595H30.9977C30.8377 42.595 30.7577 42.595 30.7577 42.595C30.7577 42.595 30.7577 42.675 30.7577 42.835V43.255C30.7577 43.415 30.7577 43.495 30.7577 43.495C30.7577 43.495 30.8377 43.495 30.9977 43.495H35.1077C35.7077 43.495 36.2227 43.71 36.6527 44.14C37.0827 44.57 37.2977 45.08 37.2977 45.67V46.825C37.2977 47.415 37.0827 47.925 36.6527 48.355C36.2227 48.785 35.7077 49 35.1077 49H30.6377ZM41.0109 49C40.4109 49 39.8959 48.785 39.4659 48.355C39.0359 47.925 38.8209 47.415 38.8209 46.825V37.72H41.1159V40.3H44.3409V42.595H41.1159V46.21C41.1159 46.54 41.1159 46.705 41.1159 46.705C41.1159 46.705 41.2809 46.705 41.6109 46.705H44.3409V49H41.0109Z" fill="#64D0FF"/>
</svg>
