<svg width="63" height="63" viewBox="0 0 63 63" fill="none" xmlns="http://www.w3.org/2000/svg">
<circle cx="31.5" cy="31.5" r="31.5" fill="white"/>
<path d="M18.8052 30V19.2H21.1452V30H18.8052ZM24.3811 19.2V27.66H30.5011V19.2H32.8561V27.78C32.8561 28.39 32.6361 28.915 32.1961 29.355C31.7661 29.785 31.2461 30 30.6361 30H24.2761C23.6561 30 23.1311 29.785 22.7011 29.355C22.2711 28.925 22.0561 28.4 22.0561 27.78V19.2H24.3811ZM33.968 19.2H44.768V21.54H40.538V30H38.198V21.54H33.968V19.2ZM18.9865 33.435H21.2965V42.705H23.0515V45H21.1615C20.5715 45 20.0615 44.785 19.6315 44.355C19.2015 43.925 18.9865 43.415 18.9865 42.825V33.435ZM24.4944 45V36.3H26.7894V45H24.4944ZM24.4944 33.45H26.7894V35.76H24.4944V33.45ZM37.2977 38.475V38.91H34.9877V38.595H30.7577V39.495H35.1077C35.7177 39.495 36.2327 39.71 36.6527 40.14C37.0827 40.56 37.2977 41.07 37.2977 41.67V42.825C37.2977 43.415 37.0827 43.925 36.6527 44.355C36.2327 44.785 35.7177 45 35.1077 45H30.6377C30.0477 45 29.5377 44.785 29.1077 44.355C28.6777 43.925 28.4627 43.415 28.4627 42.825V42.39H30.7577V42.705H34.9877V41.805H30.6377C30.0477 41.805 29.5377 41.59 29.1077 41.16C28.6777 40.73 28.4627 40.22 28.4627 39.63V38.475C28.4627 37.885 28.6777 37.375 29.1077 36.945C29.5377 36.515 30.0477 36.3 30.6377 36.3H35.1077C35.7177 36.3 36.2327 36.515 36.6527 36.945C37.0827 37.375 37.2977 37.885 37.2977 38.475ZM44.3409 38.595H41.1159V42.705H44.3409V45H41.0109C40.4009 45 39.8809 44.785 39.4509 44.355C39.0309 43.925 38.8209 43.415 38.8209 42.825V33.72H41.1159V36.3H44.3409V38.595Z" fill="#64D0FF"/>
</svg>