<svg width="126" height="126" viewBox="0 0 126 126" fill="none" xmlns="http://www.w3.org/2000/svg">
<g clip-path="url(#clip0)">
<path d="M65.0323 96.4837V35.8002C65.0323 34.6776 64.1227 33.7679 63 33.7679C61.8774 33.7679 60.9678 34.6776 60.9678 35.8002V96.4837C60.9678 97.6063 61.8774 98.516 63 98.516C64.1227 98.516 65.0323 97.6063 65.0323 96.4837Z" fill="#64D0FF"/>
<path d="M123.968 20.5345C119.671 20.5345 114.318 18.6805 108.649 16.7179C101.471 14.232 93.3338 11.4148 84.8953 11.4148C75.131 11.4148 69.174 15.6936 65.8964 19.2832C64.6705 20.6261 63.7205 21.9717 63.0003 23.1653C62.28 21.9717 61.33 20.6261 60.1042 19.2832C56.8263 15.6936 50.8696 11.4148 41.1053 11.4148C32.6665 11.4148 24.5299 14.232 17.3514 16.7179C11.6825 18.6805 6.32872 20.5345 2.03226 20.5345C0.909639 20.5345 0 21.4441 0 22.5667V104.424C0 105.547 0.909639 106.456 2.03226 106.456C7.01265 106.456 12.6805 104.494 18.6808 102.416C25.5566 100.035 33.3499 97.3365 41.1047 97.3365C47.7543 97.3365 53.1365 99.5384 57.1021 103.881C57.8587 104.71 59.1444 104.768 59.9733 104.011C60.8022 103.254 60.8602 101.969 60.1034 101.14C56.8255 97.5506 50.8688 93.2717 41.1047 93.2717C32.666 93.2717 24.5294 96.089 17.3509 98.5748C12.5453 100.239 7.96537 101.825 4.06452 102.269V24.4982C8.53305 24.0725 13.482 22.3586 18.6808 20.5586C25.5566 18.1779 33.3499 15.4793 41.1047 15.4793C56.7886 15.4793 60.8921 27.9335 61.0572 28.457C61.3195 29.31 62.1074 29.8926 63 29.8926C63.8926 29.8926 64.6805 29.3103 64.9428 28.457C64.9824 28.3272 69.1111 15.4793 84.8953 15.4793C92.6501 15.4793 100.443 18.1779 107.319 20.5586C112.518 22.3589 117.467 24.0725 121.935 24.4982V102.269C118.035 101.825 113.455 100.239 108.649 98.5751C101.471 96.0892 93.3338 93.272 84.8953 93.272C75.1307 93.272 69.1737 97.5508 65.8964 101.14C65.1396 101.969 65.1978 103.255 66.0264 104.012C66.8556 104.768 68.1411 104.71 68.8976 103.881C72.8632 99.5386 78.2455 97.3368 84.8953 97.3368C92.6501 97.3368 100.443 100.035 107.319 102.416C113.32 104.494 118.988 106.456 123.968 106.456C125.09 106.456 126 105.547 126 104.424V22.5667C126 21.4444 125.09 20.5345 123.968 20.5345Z" fill="#64D0FF"/>
<path d="M123.968 110.521C119.671 110.521 114.318 108.667 108.649 106.704C101.471 104.218 93.3338 101.401 84.8953 101.401C75.7249 101.401 69.9132 105.175 66.5247 108.608L59.475 108.607C56.0865 105.175 50.2745 101.401 41.1047 101.401C32.666 101.401 24.5294 104.218 17.3509 106.704C11.6825 108.667 6.32872 110.521 2.03226 110.521C0.909639 110.521 0 111.43 0 112.553C0 113.676 0.909639 114.585 2.03226 114.585C7.01265 114.585 12.6805 112.623 18.6808 110.545C25.5566 108.164 33.3499 105.466 41.1047 105.466C47.7543 105.466 53.1365 107.667 57.1021 112.01C57.4872 112.432 58.0318 112.672 58.6027 112.672L67.3967 112.672C67.9677 112.672 68.5123 112.432 68.8973 112.01C72.863 107.667 78.2452 105.466 84.895 105.466C92.6498 105.466 100.443 108.164 107.319 110.545C113.32 112.623 118.987 114.585 123.967 114.585C125.09 114.585 126 113.676 126 112.553C126 111.43 125.09 110.521 123.968 110.521Z" fill="#64D0FF"/>
</g>
<defs>
<clipPath id="clip0">
<rect width="126" height="126" fill="white"/>
</clipPath>
</defs>
</svg>