<svg width="34" height="34" viewBox="0 0 34 34" fill="none" xmlns="http://www.w3.org/2000/svg">
<path d="M15.1396 20.9941C15.1592 19.832 15.291 18.9141 15.5352 18.2402C15.7793 17.5664 16.2773 16.8193 17.0293 15.999L18.9482 14.0215C19.7686 13.0938 20.1787 12.0977 20.1787 11.0332C20.1787 10.0078 19.9102 9.20703 19.373 8.63086C18.8359 8.04492 18.0547 7.75195 17.0293 7.75195C16.0332 7.75195 15.2324 8.01562 14.627 8.54297C14.0215 9.07031 13.7188 9.77832 13.7188 10.667H11.0088C11.0283 9.08496 11.5898 7.81055 12.6934 6.84375C13.8066 5.86719 15.252 5.37891 17.0293 5.37891C18.875 5.37891 20.3105 5.87695 21.3359 6.87305C22.3711 7.85937 22.8887 9.2168 22.8887 10.9453C22.8887 12.6543 22.0977 14.3389 20.5156 15.999L18.9189 17.5811C18.2061 18.3721 17.8496 19.5098 17.8496 20.9941H15.1396ZM15.0225 25.6377C15.0225 25.1982 15.1543 24.832 15.418 24.5391C15.6914 24.2363 16.0918 24.085 16.6191 24.085C17.1465 24.085 17.5469 24.2363 17.8203 24.5391C18.0938 24.832 18.2305 25.1982 18.2305 25.6377C18.2305 26.0771 18.0938 26.4434 17.8203 26.7363C17.5469 27.0195 17.1465 27.1611 16.6191 27.1611C16.0918 27.1611 15.6914 27.0195 15.418 26.7363C15.1543 26.4434 15.0225 26.0771 15.0225 25.6377Z" fill="#35C2FF"/>
</svg>